PathFileType	4	(X/Y/Z)	 s08c0402.trc
DataRate	CameraRate	NumFrames	NumMarkers	Units	OrigDataRate	OrigDataStartFrame	OrigNumFrames
200	200	4	50	mm	200	501	2000
Frame#	Time	racr			lacr			c7			jug			rlel			rdr			llel			ldr			s2			lic			ric			lasi			rasi			rpsi			lpsi			rgt			lgt			rth1			rth2			rth3			rth4			rlfc			rmfc			rsh1			rsh2			rsh3			rsh4			rlmal			rmmal			rcal			rtoe			rmt5			lth1			lth2			lth4			lth3			llfc			lmfc			llmal			lmmal			lcal			lmt5			lsh1			lsh2			lsh3			lsh4			ltoe			SBIKE			LBIKE			RBIKE			
		X1	Y1	Z1	X2	Y2	Z2	X3	Y3	Z3	X4	Y4	Z4	X5	Y5	Z5	X6	Y6	Z6	X7	Y7	Z7	X8	Y8	Z8	X9	Y9	Z9	X10	Y10	Z10	X11	Y11	Z11	X12	Y12	Z12	X13	Y13	Z13	X14	Y14	Z14	X15	Y15	Z15	X16	Y16	Z16	X17	Y17	Z17	X18	Y18	Z18	X19	Y19	Z19	X20	Y20	Z20	X21	Y21	Z21	X22	Y22	Z22	X23	Y23	Z23	X24	Y24	Z24	X25	Y25	Z25	X26	Y26	Z26	X27	Y27	Z27	X28	Y28	Z28	X29	Y29	Z29	X30	Y30	Z30	X31	Y31	Z31	X32	Y32	Z32	X33	Y33	Z33	X34	Y34	Z34	X35	Y35	Z35	X36	Y36	Z36	X37	Y37	Z37	X38	Y38	Z38	X39	Y39	Z39	X40	Y40	Z40	X41	Y41	Z41	X42	Y42	Z42	X43	Y43	Z43	X44	Y44	Z44	X45	Y45	Z45	X46	Y46	Z46	X47	Y47	Z47	X48	Y48	Z48	X49	Y49	Z49	X50	Y50	Z50	
501	2.5050	783.997817	1305.476197	4.186270	826.443911	1323.664164	-334.399575	793.885999	1389.626273	-153.111915	748.136572	1241.418866	-182.505994	621.561568	1103.437635	129.101249	778.644010	940.303489	-34.013496	651.084927	1142.484199	-479.347432	784.170262	931.275578	-413.637370	222.192470	1262.966914	-250.311969	398.799053	1210.534741	-381.151452	354.684333	1255.362211	-68.452392	392.954472	1155.571915	-335.992111	379.364457	1199.708228	-93.757784	257.655877	1302.365282	-202.524447	268.316108	1293.692602	-295.922560	278.404411	1171.448494	-35.162847	309.089145	1102.522644	-408.059116	376.461845	1025.489884	-14.276968	443.661927	967.922957	-10.005296	472.828870	886.135967	-16.396689	473.342280	988.842968	-13.990970	537.973047	782.176427	-28.370688	529.672808	778.091214	-142.359584	454.161551	675.745922	-10.806931	441.214624	589.036380	-31.749861	386.425021	523.539519	-45.714347	471.333865	581.863005	-59.263068	331.297678	420.276236	-63.653847	354.768236	440.485205	-150.106067	252.073343	390.951141	-114.134929	546.832410	384.200284	-85.546871	454.752669	348.982245	-27.398052	368.884411	985.302001	-404.875600	421.608601	915.719605	-393.565065	452.267718	929.424225	-379.014841	434.478374	827.819495	-393.354669	450.857956	698.311442	-375.635430	429.198218	678.476427	-267.714401	130.846249	427.603472	-395.605990	199.589247	439.296518	-309.250723	75.722370	460.795637	-354.315610	148.310348	258.843788	-413.509518	360.465296	608.944275	-403.378667	309.069026	541.688318	-388.673147	230.573151	501.947973	-396.775048	321.320514	528.801474	-351.835383	217.934647	208.109622	-343.116478	-141.025523	941.538454	-219.979590	18.175933	84.642594	-425.828597	11.170783	80.193734	-27.400371	
502	2.5100	784.327285	1303.759676	4.151597	826.153898	1325.174111	-335.342911	793.954173	1388.873484	-153.106051	749.142430	1240.762081	-183.281095	620.389783	1102.493231	128.986420	778.402959	940.330716	-34.150532	650.733144	1142.369968	-477.600368	784.310874	930.935749	-412.798491	222.306937	1259.474525	-250.422060	399.512484	1209.211098	-380.714234	355.055399	1251.153125	-67.653540	393.958895	1153.815362	-335.799058	379.721306	1196.338151	-92.856776	257.633054	1298.503741	-201.932330	268.394735	1290.839550	-295.533369	277.831030	1166.548978	-35.251429	311.998647	1101.092187	-409.226387	375.422626	1019.971507	-14.400699	442.270014	962.170367	-9.960034	471.100583	880.108271	-16.428174	472.151169	982.693942	-13.657588	535.719120	776.028504	-28.166957	529.287674	774.989067	-147.582832	453.023366	668.861301	-10.453859	440.766073	581.804722	-32.209331	387.152165	515.791680	-45.329211	471.828543	575.380035	-58.218184	333.036790	411.636475	-63.324110	356.879437	431.886577	-150.040634	253.844799	382.706390	-113.748617	548.606130	374.801172	-85.623930	456.392102	339.821596	-27.473668	373.156476	984.718115	-405.392371	426.577530	915.807356	-393.181214	456.708631	929.829572	-377.788791	440.862408	828.115907	-393.753968	458.087406	698.895829	-375.834270	436.314031	678.534439	-268.434965	132.040882	435.898933	-395.970234	199.982535	446.622491	-309.196282	77.340148	470.100935	-354.636248	146.909159	266.921477	-413.489687	365.616448	611.668956	-404.037918	312.778780	545.829884	-389.468336	233.177384	507.898430	-397.044140	324.758786	532.138790	-352.344914	215.833479	215.324627	-343.039770	-140.980636	941.545776	-219.975002	18.190469	84.667468	-425.828756	11.252998	80.423571	-27.220446	
503	2.5150	784.714933	1302.383550	4.029669	825.604127	1326.620095	-336.118312	793.919169	1388.449492	-153.175180	750.507593	1240.010462	-184.424115	619.372794	1101.521104	128.696165	778.303201	940.301309	-34.082682	650.307680	1141.957530	-475.977303	783.663502	931.807098	-414.851278	222.359555	1255.955984	-250.379705	400.221137	1207.982608	-380.242250	355.472651	1246.836517	-66.860039	394.983156	1152.117127	-335.452304	380.163661	1192.883396	-91.972578	257.606829	1294.519774	-201.208162	268.423567	1287.998827	-295.062771	277.274180	1161.297251	-35.375562	314.847840	1099.647192	-409.963126	374.605179	1014.279367	-14.620493	441.068896	956.003503	-10.048535	469.428478	873.789301	-16.623020	471.446429	976.110641	-13.953664	533.624805	769.713931	-28.007187	527.356680	768.152066	-147.469761	451.838724	661.722997	-10.273405	440.569258	574.501615	-31.673605	387.516190	508.081084	-44.965504	470.633400	568.280273	-57.227607	334.358911	403.048992	-62.959821	358.729072	423.762580	-148.950113	255.121175	374.418348	-113.379445	549.931316	365.268462	-85.699338	457.692605	330.552654	-27.502561	377.123173	984.041774	-405.831007	431.395674	915.979097	-393.069020	460.929793	930.301990	-376.842575	447.118538	828.459852	-394.299032	465.184378	699.762686	-376.446341	443.323715	679.043387	-268.935855	133.670606	444.183241	-396.311978	200.548789	453.964792	-309.145489	79.579036	479.368125	-355.094291	146.053892	275.063346	-413.539157	370.927904	614.598882	-404.760410	316.885840	549.838740	-390.349636	236.075115	513.970443	-397.382082	328.550747	535.585768	-353.065360	214.233810	222.852848	-343.119767	-140.902256	941.569709	-219.931732	18.228598	84.574673	-425.748585	11.275328	80.413275	-27.207810	
504	2.5200	785.141288	1301.413653	3.943947	824.852537	1327.985160	-337.262962	793.835260	1388.261002	-153.358611	751.860318	1240.077441	-185.646124	618.379961	1100.793615	128.198437	778.211483	940.270558	-34.081924	649.668034	1141.181055	-474.525623	783.614122	931.237770	-414.416690	222.348221	1252.193089	-250.085896	400.893062	1206.816357	-379.661933	356.032700	1242.414591	-65.979501	395.957226	1150.547942	-335.244139	380.694939	1189.355073	-91.111398	257.527549	1290.548881	-200.307260	268.068803	1285.378359	-294.661451	277.031431	1156.025130	-35.344484	317.525632	1098.228769	-410.266596	373.963230	1008.495788	-14.821969	440.018251	949.690800	-10.281364	467.924451	867.458597	-16.938349	470.803757	969.577757	-14.517233	531.407624	763.146375	-28.159955	525.178335	761.096217	-147.584957	450.635584	654.372955	-10.328947	440.165027	567.100047	-31.480645	387.683080	500.106413	-44.722765	470.267262	560.949249	-57.180287	335.292054	394.600157	-62.467927	358.627845	415.511411	-149.044936	256.109083	366.247897	-112.907144	550.883303	355.582622	-85.956035	458.548766	321.164855	-27.604393	380.656974	983.284612	-406.262928	436.008705	916.139933	-393.105711	464.941214	930.761434	-376.177140	453.316949	828.968907	-394.940402	472.169411	700.915371	-377.256578	450.445905	679.535612	-269.739711	135.718642	452.405873	-396.767024	201.290655	461.312534	-309.099407	82.273071	488.796712	-355.856351	145.370007	283.271891	-413.532419	376.390513	617.764085	-405.435052	321.140678	554.273595	-391.227448	239.283213	520.159434	-397.855884	332.530490	539.186273	-353.904555	212.972223	230.111402	-343.286737	-140.855895	941.593828	-219.860781	18.229385	84.687936	-425.833289	11.209705	80.210028	-27.393650	
